<svg width="339" height="291" viewBox="0 0 339 291" fill="none" xmlns="http://www.w3.org/2000/svg">
<path d="M88.5625 197.281C84.5625 197.281 80.9688 196.5 77.7812 194.938C74.5938 193.313 72 190.688 70 187.063C69.1875 185.625 68.5 184.125 67.9375 182.563C67.4375 180.938 67.1875 179.281 67.1875 177.594C67.1875 174.406 68.75 172.813 71.875 172.813C73.3125 172.813 74.375 173.219 75.0625 174.031C75.75 174.781 76.2812 175.781 76.6562 177.031C77.0312 178.281 77.4062 179.625 77.7812 181.063C78.1562 182.438 78.7188 183.75 79.4688 185C80.2188 186.25 81.3125 187.281 82.75 188.094C84.25 188.844 86.25 189.219 88.75 189.219C92.1875 189.219 94.875 188.031 96.8125 185.656C98.75 183.219 99.7188 180.375 99.7188 177.125C99.7188 174.5 99.125 172.313 97.9375 170.563C96.8125 168.813 95.3125 167.344 93.4375 166.156C91.5625 164.906 89.5 163.781 87.25 162.781C85 161.781 82.7188 160.75 80.4062 159.688C78.1562 158.563 76.0938 157.281 74.2188 155.844C72.3438 154.344 70.8125 152.5 69.625 150.313C68.5 148.063 67.9375 145.313 67.9375 142.063C67.9375 138.25 68.7812 135 70.4688 132.313C72.1562 129.563 74.4375 127.469 77.3125 126.031C80.25 124.531 83.5312 123.781 87.1562 123.781C90.4062 123.781 93.5625 124.469 96.625 125.844C99.6875 127.156 102.219 129.094 104.219 131.656C106.281 134.156 107.312 137.188 107.312 140.75C107.312 143.75 105.812 145.25 102.812 145.25C101.312 145.25 100.188 144.813 99.4375 143.938C98.75 143 98.1562 141.875 97.6562 140.563C97.2188 139.188 96.6562 137.844 95.9688 136.531C95.3438 135.219 94.3438 134.125 92.9688 133.25C91.5938 132.313 89.625 131.844 87.0625 131.844C83.75 131.844 81.1875 132.656 79.375 134.281C77.625 135.906 76.75 138.406 76.75 141.781C76.75 143.969 77.3125 145.813 78.4375 147.313C79.625 148.75 81.1562 150.031 83.0312 151.156C84.9688 152.219 87.0625 153.25 89.3125 154.25C91.625 155.188 93.9062 156.25 96.1562 157.438C98.4688 158.563 100.562 159.969 102.438 161.656C104.375 163.281 105.906 165.313 107.031 167.75C108.219 170.188 108.812 173.188 108.812 176.75C108.812 183 107 188 103.375 191.75C99.8125 195.438 94.875 197.281 88.5625 197.281ZM118.469 197.281C117.281 197.281 116.312 197 115.562 196.438C114.812 195.875 114.438 194.969 114.438 193.719C114.438 193.594 114.438 193.344 114.438 192.969C114.5 192.594 114.562 192.375 114.625 192.313L130.188 129.219C130.562 127.594 131.188 126.281 132.062 125.281C133 124.281 134.344 123.781 136.094 123.781C137.906 123.781 139.25 124.344 140.125 125.469C141.062 126.594 141.719 127.969 142.094 129.594L157.469 192.313C157.531 192.375 157.562 192.594 157.562 192.969C157.625 193.344 157.656 193.594 157.656 193.719C157.656 194.969 157.281 195.875 156.531 196.438C155.844 197 154.875 197.281 153.625 197.281C152.438 197.281 151.5 196.906 150.812 196.156C150.125 195.406 149.656 194.5 149.406 193.438L145.562 176.938H126.625L122.688 193.438C122.438 194.5 121.969 195.406 121.281 196.156C120.594 196.906 119.656 197.281 118.469 197.281ZM128.406 169.25H143.688L136.094 137L128.406 169.25ZM172.188 195.969C169.875 195.969 167.906 195.188 166.281 193.625C164.656 192 163.844 190.031 163.844 187.719V133.344C163.844 131.094 164.656 129.156 166.281 127.531C167.969 125.906 169.938 125.094 172.188 125.094H181.094C185.094 125.094 188.75 125.531 192.062 126.406C195.375 127.219 198.031 128.844 200.031 131.281C202.031 133.656 203.031 137.219 203.031 141.969C203.031 146.156 202 149.688 199.938 152.563C197.875 155.375 194.906 157.5 191.031 158.938C195.594 160.25 199.031 162.406 201.344 165.406C203.719 168.344 204.906 172.219 204.906 177.031C204.906 181.156 203.969 184.625 202.094 187.438C200.281 190.25 197.781 192.375 194.594 193.813C191.469 195.25 187.938 195.969 184 195.969H172.188ZM172.656 155.188H180.438C184.5 155.188 187.781 154.25 190.281 152.375C192.844 150.438 194.125 147.344 194.125 143.094C194.125 139.094 193.094 136.438 191.031 135.125C188.969 133.75 186.094 133.063 182.406 133.063H176.312C175.188 133.063 174.281 133.406 173.594 134.094C172.969 134.781 172.656 135.688 172.656 136.813V155.188ZM176.406 188H181.281C184.094 188 186.594 187.625 188.781 186.875C191.031 186.125 192.781 184.875 194.031 183.125C195.344 181.313 196 178.875 196 175.813C196 172.625 195.312 170.125 193.938 168.313C192.625 166.438 190.812 165.125 188.5 164.375C186.25 163.563 183.688 163.156 180.812 163.156H172.656V184.25C172.656 186.75 173.906 188 176.406 188ZM216.25 197.375C214.625 197.375 213.469 196.875 212.781 195.875C212.156 194.813 211.844 193.531 211.844 192.031V129.219C211.844 127.719 212.156 126.438 212.781 125.375C213.406 124.313 214.562 123.781 216.25 123.781C217.938 123.781 219.094 124.313 219.719 125.375C220.344 126.438 220.656 127.719 220.656 129.219V155.563H243.344V129.219C243.344 127.719 243.656 126.438 244.281 125.375C244.906 124.313 246.062 123.781 247.75 123.781C249.438 123.781 250.594 124.313 251.219 125.375C251.844 126.438 252.156 127.719 252.156 129.219V192.031C252.156 193.531 251.812 194.813 251.125 195.875C250.5 196.875 249.375 197.375 247.75 197.375C246.125 197.375 244.969 196.875 244.281 195.875C243.656 194.813 243.344 193.531 243.344 192.031V163.813H220.656V192.031C220.656 193.531 220.312 194.813 219.625 195.875C219 196.875 217.875 197.375 216.25 197.375ZM279.906 197.281C278.156 197.281 276.938 196.75 276.25 195.688C275.625 194.563 275.312 193.219 275.312 191.656V129.406C275.312 127.781 275.656 126.438 276.344 125.375C277.031 124.313 278.25 123.781 280 123.781C281.75 123.781 282.938 124.313 283.562 125.375C284.25 126.438 284.594 127.781 284.594 129.406V191.656C284.594 193.219 284.25 194.563 283.562 195.688C282.875 196.75 281.656 197.281 279.906 197.281Z" fill="black"/>
<path d="M276.039 190.5C258.039 190.5 276.039 230.088 276.039 230.088C276.039 230.088 287.672 241.84 286.488 251.667C285.304 261.493 290.895 285.167 320.395 286.167C349.895 287.167 323.988 266.167 323.988 266.167C323.988 266.167 312.834 253.167 312.834 239.914C312.834 226.662 331.988 187.156 326.948 176.667C321.907 166.178 317.988 166.167 320.395 161.303C322.802 156.44 326.948 140.167 326.948 131.667C326.948 123.167 328.141 108.248 317.987 102.667C307.833 97.0853 310.488 78.1667 300.737 68.211C290.986 58.2553 273.988 52.1784 263.941 44.9379C253.894 37.6974 254.22 30.1667 243.5 19.5961C232.78 9.02561 214 5 214 5C214 5 207.988 5.16667 186.317 6.66667C164.647 8.16667 170.814 32.5256 165.651 19.5961C160.488 6.66667 140.953 12.3556 140.953 12.3556C140.953 12.3556 112.988 9.66667 107.488 12.3556C101.988 15.0446 89.9878 19.5962 84.4989 25.8023C79.01 32.0085 78.4873 63.6667 71.8976 52.1784C65.3079 40.6902 61.3126 44.9379 61.3126 44.9379L44.1748 49.0754C44.1748 49.0754 38.1679 52.6956 32.0776 60.4533C25.9873 68.211 18.4682 85.795 18.4682 85.795C15.948 88.7257 -2.51266 108.167 11.9874 123.167C-12.5127 131.667 26.0903 207.511 61 198.5L66 194.5L70 188.5L71.5 177.5" stroke="black" stroke-width="8"/>
</svg>
