<svg width="250" height="310" viewBox="0 0 250 310" fill="none" xmlns="http://www.w3.org/2000/svg">
<path d="M98.488 91.1759H89.6812C89.1603 88.6428 88.2489 86.4174 86.9468 84.4998C85.6684 82.5822 84.1059 80.9723 82.2593 79.6702C80.4364 78.3445 78.4122 77.3501 76.1869 76.6873C73.9615 76.0244 71.6414 75.6929 69.2266 75.6929C64.8232 75.6929 60.8341 76.8056 57.2593 79.031C53.7082 81.2564 50.8791 84.5353 48.7721 88.8677C46.6888 93.2001 45.6471 98.5149 45.6471 104.812C45.6471 111.11 46.6888 116.424 48.7721 120.757C50.8791 125.089 53.7082 128.368 57.2593 130.594C60.8341 132.819 64.8232 133.932 69.2266 133.932C71.6414 133.932 73.9615 133.6 76.1869 132.937C78.4122 132.274 80.4364 131.292 82.2593 129.99C84.1059 128.664 85.6684 127.042 86.9468 125.125C88.2489 123.183 89.1603 120.958 89.6812 118.449H98.488C97.8251 122.165 96.6177 125.492 94.8658 128.427C93.1139 131.363 90.9359 133.861 88.3317 135.92C85.7276 137.956 82.8038 139.507 79.5604 140.572C76.3407 141.638 72.8961 142.17 69.2266 142.17C63.024 142.17 57.5079 140.655 52.6783 137.625C47.8488 134.594 44.0491 130.286 41.2792 124.699C38.5093 119.112 37.1244 112.483 37.1244 104.812C37.1244 97.1418 38.5093 90.513 41.2792 84.9259C44.0491 79.3388 47.8488 75.0301 52.6783 71.9998C57.5079 68.9695 63.024 67.4543 69.2266 67.4543C72.8961 67.4543 76.3407 67.987 79.5604 69.0523C82.8038 70.1177 85.7276 71.6802 88.3317 73.7398C90.9359 75.7758 93.1139 78.2616 94.8658 81.1972C96.6177 84.1091 97.8251 87.4354 98.488 91.1759Z" fill="#E75225"/>
<path d="M98.488 91.1759V91.6759H99.0844L98.9803 91.0887L98.488 91.1759ZM89.6812 91.1759L89.1914 91.2766L89.2735 91.6759H89.6812V91.1759ZM86.9468 84.4998L86.5308 84.7771L86.5332 84.7806L86.9468 84.4998ZM82.2593 79.6702L81.9652 80.0746L81.9712 80.0789L82.2593 79.6702ZM76.1869 76.6873L76.0441 77.1665L76.0441 77.1665L76.1869 76.6873ZM57.2593 79.031L56.9951 78.6065L56.9938 78.6073L57.2593 79.031ZM48.7721 88.8677L48.3224 88.649L48.3215 88.651L48.7721 88.8677ZM48.7721 120.757L48.3215 120.974L48.3224 120.976L48.7721 120.757ZM57.2593 130.594L56.9938 131.017L56.9951 131.018L57.2593 130.594ZM76.1869 132.937L76.0441 132.458L76.0441 132.458L76.1869 132.937ZM82.2593 129.99L82.5499 130.397L82.5509 130.396L82.2593 129.99ZM86.9468 125.125L86.5316 124.846L86.5308 124.847L86.9468 125.125ZM89.6812 118.449V117.949H89.2743L89.1916 118.347L89.6812 118.449ZM98.488 118.449L98.9802 118.536L99.0851 117.949H98.488V118.449ZM94.8658 128.427L94.4365 128.171L94.4365 128.171L94.8658 128.427ZM88.3317 135.92L88.6397 136.314L88.6419 136.312L88.3317 135.92ZM79.5604 140.572L79.4044 140.097L79.4034 140.098L79.5604 140.572ZM52.6783 137.625L52.4126 138.048L52.4126 138.048L52.6783 137.625ZM41.2792 124.699L41.7272 124.477L41.7272 124.477L41.2792 124.699ZM79.5604 69.0523L79.4034 69.527L79.4044 69.5274L79.5604 69.0523ZM88.3317 73.7398L88.0216 74.132L88.0238 74.1337L88.3317 73.7398ZM94.8658 81.1972L94.4365 81.4534L94.4374 81.455L94.8658 81.1972ZM98.488 90.6759H89.6812V91.6759H98.488V90.6759ZM90.1709 91.0752C89.6384 88.485 88.7036 86.1969 87.3605 84.2189L86.5332 84.7806C87.7942 86.6378 88.6823 88.8005 89.1914 91.2766L90.1709 91.0752ZM87.3628 84.2224C86.0509 82.2546 84.4454 80.5999 82.5474 79.2616L81.9712 80.0789C83.7664 81.3447 85.2858 82.9097 86.5308 84.7771L87.3628 84.2224ZM82.5534 79.2659C80.6832 77.9058 78.6076 76.8866 76.3296 76.2081L76.0441 77.1665C78.2168 77.8137 80.1895 78.7832 81.9652 80.0746L82.5534 79.2659ZM76.3296 76.2081C74.0561 75.5309 71.6878 75.1929 69.2266 75.1929V76.1929C71.595 76.1929 73.8669 76.5179 76.0441 77.1665L76.3296 76.2081ZM69.2266 75.1929C64.7343 75.1929 60.6529 76.3295 56.9951 78.6065L57.5235 79.4555C61.0153 77.2818 64.9121 76.1929 69.2266 76.1929V75.1929ZM56.9938 78.6073C53.352 80.8895 50.4642 84.2452 48.3224 88.649L49.2217 89.0863C51.294 84.8253 54.0644 81.6233 57.5248 79.4547L56.9938 78.6073ZM48.3215 88.651C46.1972 93.0685 45.1471 98.4622 45.1471 104.812H46.1471C46.1471 98.5676 47.1803 93.3316 49.2227 89.0844L48.3215 88.651ZM45.1471 104.812C45.1471 111.162 46.1972 116.556 48.3215 120.974L49.2227 120.54C47.1803 116.293 46.1471 111.057 46.1471 104.812H45.1471ZM48.3224 120.976C50.4642 125.379 53.352 128.735 56.9938 131.017L57.5248 130.17C54.0644 128.001 51.294 124.799 49.2217 120.538L48.3224 120.976ZM56.9951 131.018C60.6529 133.295 64.7343 134.432 69.2266 134.432V133.432C64.9121 133.432 61.0153 132.343 57.5235 130.169L56.9951 131.018ZM69.2266 134.432C71.6878 134.432 74.0561 134.094 76.3296 133.416L76.0441 132.458C73.8669 133.107 71.595 133.432 69.2266 133.432V134.432ZM76.3296 133.416C78.606 132.738 80.6804 131.732 82.5499 130.397L81.9687 129.583C80.1924 130.852 78.2185 131.81 76.0441 132.458L76.3296 133.416ZM82.5509 130.396C84.4471 129.035 86.0515 127.369 87.3628 125.402L86.5308 124.847C85.2853 126.716 83.7647 128.293 81.9677 129.584L82.5509 130.396ZM87.362 125.403C88.7034 123.403 89.6381 121.117 90.1707 118.55L89.1916 118.347C88.6826 120.799 87.7944 122.964 86.5316 124.846L87.362 125.403ZM89.6812 118.949H98.488V117.949H89.6812V118.949ZM97.9958 118.361C97.3424 122.024 96.1543 125.293 94.4365 128.171L95.2952 128.684C97.0811 125.691 98.3078 122.307 98.9802 118.536L97.9958 118.361ZM94.4365 128.171C92.7148 131.056 90.5767 133.507 88.0216 135.528L88.6419 136.312C91.2952 134.214 93.5131 131.67 95.2952 128.684L94.4365 128.171ZM88.0238 135.526C85.4667 137.526 82.5947 139.049 79.4044 140.097L79.7165 141.047C83.013 139.964 85.9885 138.387 88.6397 136.314L88.0238 135.526ZM79.4034 140.098C76.2383 141.145 72.8471 141.67 69.2266 141.67V142.67C72.9451 142.67 76.4431 142.13 79.7175 141.047L79.4034 140.098ZM69.2266 141.67C63.1094 141.67 57.687 140.177 52.9441 137.201L52.4126 138.048C57.3287 141.133 62.9386 142.67 69.2266 142.67V141.67ZM52.9441 137.201C48.2 134.225 44.46 129.989 41.7272 124.477L40.8312 124.921C43.6381 130.582 47.4976 134.964 52.4126 138.048L52.9441 137.201ZM41.7272 124.477C38.9985 118.973 37.6244 112.423 37.6244 104.812H36.6244C36.6244 112.542 38.0201 119.251 40.8312 124.921L41.7272 124.477ZM37.6244 104.812C37.6244 97.2015 38.9985 90.652 41.7272 85.148L40.8312 84.7038C38.0201 90.374 36.6244 97.0822 36.6244 104.812H37.6244ZM41.7272 85.148C44.46 79.6355 48.2 75.4 52.9441 72.4233L52.4126 71.5762C47.4976 74.6601 43.6381 79.042 40.8312 84.7038L41.7272 85.148ZM52.9441 72.4233C57.687 69.4473 63.1094 67.9543 69.2266 67.9543V66.9543C62.9386 66.9543 57.3287 68.4916 52.4126 71.5762L52.9441 72.4233ZM69.2266 67.9543C72.8471 67.9543 76.2383 68.4798 79.4034 69.527L79.7175 68.5776C76.4431 67.4942 72.9451 66.9543 69.2266 66.9543V67.9543ZM79.4044 69.5274C82.5935 70.5749 85.4648 72.1098 88.0216 74.132L88.6419 73.3477C85.9903 71.2505 83.0141 69.6605 79.7165 68.5773L79.4044 69.5274ZM88.0238 74.1337C90.5777 76.1304 92.7151 78.569 94.4365 81.4534L95.2952 80.941C93.5128 77.9542 91.2942 75.4212 88.6397 73.3459L88.0238 74.1337ZM94.4374 81.455C96.1542 84.3086 97.3422 87.5758 97.9957 91.2632L98.9803 91.0887C98.308 87.2949 97.0812 83.9096 95.2943 80.9394L94.4374 81.455Z" fill="#E75225"/>
<path d="M90.0512 111.486V38.7591H133.659V46.5716H98.858V71.1454H130.392V78.9579H98.858V111.486H90.0512Z" fill="#E75225"/>
<path d="M90.0512 111.486H89.5512V111.986H90.0512V111.486ZM90.0512 38.7591V38.2591H89.5512V38.7591H90.0512ZM133.659 38.7591H134.159V38.2591H133.659V38.7591ZM133.659 46.5716V47.0716H134.159V46.5716H133.659ZM98.858 46.5716V46.0716H98.358V46.5716H98.858ZM98.858 71.1454H98.358V71.6454H98.858V71.1454ZM130.392 71.1454H130.892V70.6454H130.392V71.1454ZM130.392 78.9579V79.4579H130.892V78.9579H130.392ZM98.858 78.9579V78.4579H98.358V78.9579H98.858ZM98.858 111.486V111.986H99.358V111.486H98.858ZM90.5512 111.486V38.7591H89.5512V111.486H90.5512ZM90.0512 39.2591H133.659V38.2591H90.0512V39.2591ZM133.159 38.7591V46.5716H134.159V38.7591H133.159ZM133.659 46.0716H98.858V47.0716H133.659V46.0716ZM98.358 46.5716V71.1454H99.358V46.5716H98.358ZM98.858 71.6454H130.392V70.6454H98.858V71.6454ZM129.892 71.1454V78.9579H130.892V71.1454H129.892ZM130.392 78.4579H98.858V79.4579H130.392V78.4579ZM98.358 78.9579V111.486H99.358V78.9579H98.358ZM98.858 110.986H90.0512V111.986H98.858V110.986Z" fill="#E75225"/>
<path d="M130.129 97.6653H120.896L147.6 24.938H156.691L183.396 97.6653H174.163L152.43 36.4437H151.862L130.129 97.6653ZM133.538 69.2562H170.754V77.0687H133.538V69.2562Z" fill="#E75225"/>
<path d="M130.129 97.6653V98.1653H130.482L130.6 97.8326L130.129 97.6653ZM120.896 97.6653L120.427 97.4929L120.18 98.1653H120.896V97.6653ZM147.6 24.938V24.438H147.251L147.131 24.7657L147.6 24.938ZM156.691 24.938L157.161 24.7657L157.04 24.438H156.691V24.938ZM183.396 97.6653V98.1653H184.112L183.865 97.4929L183.396 97.6653ZM174.163 97.6653L173.692 97.8326L173.81 98.1653H174.163V97.6653ZM152.43 36.4437L152.901 36.2764L152.783 35.9437H152.43V36.4437ZM151.862 36.4437V35.9437H151.509L151.391 36.2764L151.862 36.4437ZM133.538 69.2562V68.7562H133.038V69.2562H133.538ZM170.754 69.2562H171.254V68.7562H170.754V69.2562ZM170.754 77.0687V77.5687H171.254V77.0687H170.754ZM133.538 77.0687H133.038V77.5687H133.538V77.0687ZM130.129 97.1653H120.896V98.1653H130.129V97.1653ZM121.365 97.8376L148.07 25.1104L147.131 24.7657L120.427 97.4929L121.365 97.8376ZM147.6 25.438H156.691V24.438H147.6V25.438ZM156.222 25.1104L182.927 97.8376L183.865 97.4929L157.161 24.7657L156.222 25.1104ZM183.396 97.1653H174.163V98.1653H183.396V97.1653ZM174.634 97.498L152.901 36.2764L151.959 36.611L173.692 97.8326L174.634 97.498ZM152.43 35.9437H151.862V36.9437H152.43V35.9437ZM151.391 36.2764L129.658 97.498L130.6 97.8326L152.333 36.611L151.391 36.2764ZM133.538 69.7562H170.754V68.7562H133.538V69.7562ZM170.254 69.2562V77.0687H171.254V69.2562H170.254ZM170.754 76.5687H133.538V77.5687H170.754V76.5687ZM134.038 77.0687V69.2562H133.038V77.0687H134.038Z" fill="#E75225"/>
<path d="M179.27 118.215H170.037L196.742 45.4882H205.832L232.537 118.215H223.304L201.571 56.9939H201.003L179.27 118.215ZM182.679 89.8064H219.895V97.6189H182.679V89.8064Z" fill="#E75225"/>
<path d="M179.27 118.215V118.715H179.623L179.741 118.383L179.27 118.215ZM170.037 118.215L169.568 118.043L169.321 118.715H170.037V118.215ZM196.742 45.4882V44.9882H196.393L196.272 45.3158L196.742 45.4882ZM205.832 45.4882L206.302 45.3158L206.182 44.9882H205.832V45.4882ZM232.537 118.215V118.715H233.253L233.006 118.043L232.537 118.215ZM223.304 118.215L222.833 118.383L222.951 118.715H223.304V118.215ZM201.571 56.9939L202.042 56.8266L201.924 56.4939H201.571V56.9939ZM201.003 56.9939V56.4939H200.65L200.532 56.8266L201.003 56.9939ZM182.679 89.8064V89.3064H182.179V89.8064H182.679ZM219.895 89.8064H220.395V89.3064H219.895V89.8064ZM219.895 97.6189V98.1189H220.395V97.6189H219.895ZM182.679 97.6189H182.179V98.1189H182.679V97.6189ZM179.27 117.715H170.037V118.715H179.27V117.715ZM170.506 118.388L197.211 45.6605L196.272 45.3158L169.568 118.043L170.506 118.388ZM196.742 45.9882H205.832V44.9882H196.742V45.9882ZM205.363 45.6605L232.068 118.388L233.006 118.043L206.302 45.3158L205.363 45.6605ZM232.537 117.715H223.304V118.715H232.537V117.715ZM223.775 118.048L202.042 56.8266L201.1 57.1611L222.833 118.383L223.775 118.048ZM201.571 56.4939H201.003V57.4939H201.571V56.4939ZM200.532 56.8266L178.799 118.048L179.741 118.383L201.474 57.1611L200.532 56.8266ZM182.679 90.3064H219.895V89.3064H182.679V90.3064ZM219.395 89.8064V97.6189H220.395V89.8064H219.395ZM219.895 97.1189H182.679V98.1189H219.895V97.1189ZM183.179 97.6189V89.8064H182.179V97.6189H183.179Z" fill="#E75225"/>
<path d="M42.0315 111L8.39146 171C8.39146 171 -5.29854 185.71 22.3315 191.79C22.3315 191.79 34.7315 192.99 34.9915 207.51C34.9915 207.51 29.9515 218.1 31.4115 219.21C31.4115 219.21 42.6215 224.75 45.6315 228.99C45.6315 228.99 48.9315 235.43 37.6415 247.43C37.6415 247.43 31.1815 248.51 45.9415 259.52C45.9415 259.52 51.6915 261.7 49.1615 273.68C49.1615 273.68 39.1015 286.7 41.3615 291.27C41.3615 291.27 40.5515 303.94 57.4015 304.64L150.111 260.94" stroke="#E75225" stroke-width="9" stroke-miterlimit="10"/>
</svg>
