<svg width="339" height="291" viewBox="0 0 339 291" fill="none" xmlns="http://www.w3.org/2000/svg">
<path d="M82.4082 111.182C79.9056 111.182 77.7865 110.697 76.0508 109.729C74.3555 108.719 72.9629 107.387 71.873 105.732C70.8236 104.077 70.0163 102.221 69.4512 100.162C68.9264 98.1035 68.5632 96.0046 68.3613 93.8652C68.1595 91.6855 68.0586 89.627 68.0586 87.6895C68.0586 85.7116 68.1595 83.6328 68.3613 81.4531C68.5632 79.2331 68.9466 77.0736 69.5117 74.9746C70.0768 72.8757 70.8841 70.9785 71.9336 69.2832C73.0234 67.5879 74.4362 66.2357 76.1719 65.2266C77.9076 64.2174 80.0671 63.7129 82.6504 63.7129C84.7897 63.7129 86.7272 64.278 88.4629 65.4082C90.2389 66.498 91.6315 67.9512 92.6406 69.7676C93.6901 71.5436 94.2148 73.5013 94.2148 75.6406C94.2148 77.4167 93.3066 78.3047 91.4902 78.3047C90.5215 78.3047 89.8151 78.002 89.3711 77.3965C88.9271 76.7507 88.5638 75.9837 88.2812 75.0957C88.0391 74.1673 87.7363 73.2591 87.373 72.3711C87.0098 71.4831 86.4447 70.7363 85.6777 70.1309C84.9512 69.485 83.8411 69.1621 82.3477 69.1621C80.7331 69.1621 79.401 69.6263 78.3516 70.5547C77.3424 71.4831 76.5352 72.694 75.9297 74.1875C75.3242 75.681 74.8802 77.2956 74.5977 79.0312C74.3555 80.7266 74.194 82.3815 74.1133 83.9961C74.0326 85.5703 73.9922 86.9023 73.9922 87.9922C73.9922 89.082 74.0326 90.3939 74.1133 91.9277C74.194 93.4212 74.3555 94.9753 74.5977 96.5898C74.8802 98.1641 75.3242 99.6576 75.9297 101.07C76.5352 102.443 77.3424 103.573 78.3516 104.461C79.3607 105.309 80.6523 105.732 82.2266 105.732C83.6393 105.732 84.7292 105.389 85.4961 104.703C86.3034 104.017 86.929 103.169 87.373 102.16C87.8574 101.111 88.2812 100.081 88.6445 99.0723C89.0078 98.0632 89.4316 97.2155 89.916 96.5293C90.4408 95.8431 91.1875 95.5 92.1562 95.5C94.013 95.5 94.9414 96.4082 94.9414 98.2246C94.9414 99.3548 94.679 100.586 94.1543 101.918C93.6699 103.21 93.1452 104.34 92.5801 105.309C91.4902 107.286 90.0775 108.76 88.3418 109.729C86.6465 110.697 84.6686 111.182 82.4082 111.182ZM112.561 111.182C110.139 111.182 108.1 110.677 106.445 109.668C104.831 108.618 103.519 107.246 102.51 105.551C101.541 103.815 100.794 101.918 100.27 99.8594C99.7852 97.7604 99.4622 95.6413 99.3008 93.502C99.1393 91.3626 99.0586 89.3848 99.0586 87.5684C99.0586 85.7116 99.1393 83.7135 99.3008 81.5742C99.5026 79.3945 99.8457 77.2552 100.33 75.1562C100.855 73.0573 101.622 71.1602 102.631 69.4648C103.64 67.7292 104.972 66.3366 106.627 65.2871C108.282 64.2376 110.34 63.7129 112.803 63.7129C115.184 63.7129 117.162 64.2376 118.736 65.2871C120.351 66.3366 121.643 67.7292 122.611 69.4648C123.58 71.2005 124.307 73.1178 124.791 75.2168C125.275 77.3158 125.598 79.4349 125.76 81.5742C125.921 83.6732 126.002 85.6107 126.002 87.3867C126.002 89.2031 125.921 91.181 125.76 93.3203C125.598 95.4596 125.255 97.5788 124.73 99.6777C124.246 101.777 123.499 103.694 122.49 105.43C121.521 107.165 120.23 108.558 118.615 109.607C117.001 110.657 114.982 111.182 112.561 111.182ZM112.5 105.793C114.76 105.793 116.456 104.824 117.586 102.887C118.353 101.595 118.898 100.001 119.221 98.1035C119.584 96.166 119.826 94.2083 119.947 92.2305C120.068 90.2526 120.129 88.5573 120.129 87.1445C120.129 86.1354 120.089 84.8841 120.008 83.3906C119.967 81.8971 119.826 80.3229 119.584 78.668C119.342 77.013 118.938 75.459 118.373 74.0059C117.848 72.5527 117.102 71.3822 116.133 70.4941C115.164 69.5658 113.933 69.1016 112.439 69.1016C110.986 69.1016 109.796 69.5456 108.867 70.4336C107.939 71.2812 107.192 72.3913 106.627 73.7637C106.102 75.1361 105.719 76.6296 105.477 78.2441C105.234 79.8184 105.073 81.332 104.992 82.7852C104.952 84.2383 104.932 85.4492 104.932 86.418C104.932 87.8711 104.972 89.627 105.053 91.6855C105.174 93.7038 105.396 95.7018 105.719 97.6797C106.082 99.6576 106.607 101.312 107.293 102.645C108.383 104.743 110.118 105.793 112.5 105.793ZM133.328 111.182C132.238 111.182 131.492 110.839 131.088 110.152C130.684 109.466 130.482 108.639 130.482 107.67V69.5859C130.482 68.2135 130.967 67.043 131.936 66.0742C132.945 65.0651 134.135 64.5605 135.508 64.5605H143.076C145.821 64.5605 148.202 64.9642 150.221 65.7715C152.279 66.5384 153.874 67.8099 155.004 69.5859C156.134 71.3216 156.699 73.6628 156.699 76.6094C156.699 79.9193 155.771 82.4622 153.914 84.2383C152.098 86.0143 149.656 87.2454 146.588 87.9316C147.637 88.2142 148.646 88.5977 149.615 89.082C150.624 89.526 151.452 90.1719 152.098 91.0195C152.784 91.8672 153.369 93.0579 153.854 94.5918C154.338 96.1257 154.742 97.6999 155.064 99.3145C155.428 100.889 155.71 102.201 155.912 103.25C156.114 104.017 156.336 104.865 156.578 105.793C156.82 106.721 156.941 107.589 156.941 108.396C156.941 109.365 156.659 110.072 156.094 110.516C155.569 110.96 154.842 111.182 153.914 111.182C152.905 111.182 152.138 110.798 151.613 110.031C151.089 109.264 150.705 108.255 150.463 107.004C150.221 105.753 149.999 104.38 149.797 102.887C149.635 101.353 149.393 99.8392 149.07 98.3457C148.788 96.8118 148.324 95.4193 147.678 94.168C147.072 92.9167 146.184 91.9076 145.014 91.1406C143.843 90.3737 142.309 89.9902 140.412 89.9902H136.174V107.67C136.174 108.639 135.972 109.466 135.568 110.152C135.165 110.839 134.418 111.182 133.328 111.182ZM136.174 84.8438H140.896C142.753 84.8438 144.428 84.6016 145.922 84.1172C147.415 83.5924 148.606 82.7246 149.494 81.5137C150.382 80.3027 150.826 78.6882 150.826 76.6699C150.826 74.127 150.039 72.3307 148.465 71.2812C146.931 70.2318 144.993 69.707 142.652 69.707H138.717C137.95 69.707 137.324 69.929 136.84 70.373C136.396 70.8171 136.174 71.4427 136.174 72.25V84.8438ZM174.5 111.242C173.37 111.242 172.583 110.899 172.139 110.213C171.735 109.486 171.533 108.618 171.533 107.609V69.9492H163.48C162.592 69.9492 161.866 69.7474 161.301 69.3438C160.776 68.8997 160.514 68.1934 160.514 67.2246C160.514 66.2962 160.776 65.6302 161.301 65.2266C161.866 64.7826 162.592 64.5605 163.48 64.5605H185.459C186.387 64.5605 187.114 64.7826 187.639 65.2266C188.204 65.6302 188.486 66.3164 188.486 67.2852C188.486 68.2539 188.204 68.9401 187.639 69.3438C187.074 69.7474 186.347 69.9492 185.459 69.9492H177.467V107.609C177.467 108.618 177.245 109.486 176.801 110.213C176.397 110.899 175.63 111.242 174.5 111.242ZM197.266 110.334C195.934 110.334 194.803 109.87 193.875 108.941C192.947 107.973 192.482 106.822 192.482 105.49V69.4043C192.482 68.1126 192.947 66.9824 193.875 66.0137C194.844 65.0449 195.974 64.5605 197.266 64.5605H216.096C217.024 64.5605 217.791 64.7624 218.396 65.166C219.002 65.5293 219.305 66.2155 219.305 67.2246C219.305 68.2337 219.002 68.9401 218.396 69.3438C217.791 69.707 217.024 69.8887 216.096 69.8887H200.596C198.981 69.8887 198.174 70.696 198.174 72.3105V84.2383H212.584C213.512 84.2383 214.279 84.4401 214.885 84.8438C215.531 85.207 215.854 85.8932 215.854 86.9023C215.854 87.9115 215.531 88.6178 214.885 89.0215C214.279 89.3848 213.512 89.5664 212.584 89.5664H198.174V102.584C198.174 104.199 198.981 105.006 200.596 105.006H216.096C217.024 105.006 217.791 105.208 218.396 105.611C219.002 105.975 219.305 106.661 219.305 107.67C219.305 108.679 219.002 109.385 218.396 109.789C217.791 110.152 217.024 110.334 216.096 110.334H197.266ZM225.238 111.182C224.471 111.182 223.826 111 223.301 110.637C222.816 110.273 222.574 109.668 222.574 108.82C222.574 108.497 222.615 108.195 222.695 107.912C222.816 107.589 222.958 107.286 223.119 107.004L233.594 86.3574L224.27 67.8906C224.148 67.6484 224.027 67.3659 223.906 67.043C223.785 66.6797 223.725 66.3568 223.725 66.0742C223.725 65.2266 223.967 64.6211 224.451 64.2578C224.976 63.8945 225.622 63.7129 226.389 63.7129C227.035 63.7129 227.559 63.9147 227.963 64.3184C228.407 64.6816 228.77 65.1458 229.053 65.7109L236.5 80.4844L244.068 65.5898C244.351 65.0651 244.694 64.6211 245.098 64.2578C245.542 63.8945 246.066 63.7129 246.672 63.7129C247.479 63.7129 248.105 63.8945 248.549 64.2578C249.033 64.6211 249.275 65.2266 249.275 66.0742C249.275 66.7201 249.114 67.3255 248.791 67.8906L239.467 86.3574L249.941 107.004C250.103 107.286 250.224 107.589 250.305 107.912C250.426 108.195 250.486 108.497 250.486 108.82C250.486 109.668 250.244 110.273 249.76 110.637C249.275 111 248.63 111.182 247.822 111.182C247.176 111.182 246.611 110.98 246.127 110.576C245.643 110.173 245.259 109.688 244.977 109.123L236.5 92.2305L228.023 109.123C227.741 109.688 227.378 110.173 226.934 110.576C226.49 110.98 225.924 111.182 225.238 111.182ZM71.3281 173.182C70.2383 173.182 69.4915 172.839 69.0879 172.152C68.6842 171.466 68.4824 170.639 68.4824 169.67V131.404C68.4824 130.072 68.9466 128.942 69.875 128.014C70.8034 127.045 71.9336 126.561 73.2656 126.561H92.0957C93.0241 126.561 93.791 126.762 94.3965 127.166C95.002 127.529 95.3047 128.215 95.3047 129.225C95.3047 130.234 95.002 130.94 94.3965 131.344C93.791 131.707 93.0241 131.889 92.0957 131.889H76.6562C75.0417 131.889 74.2344 132.696 74.2344 134.311V146.662H89.1895C90.1178 146.662 90.8848 146.864 91.4902 147.268C92.0957 147.631 92.3984 148.317 92.3984 149.326C92.3984 150.335 92.0957 151.042 91.4902 151.445C90.8848 151.809 90.1178 151.99 89.1895 151.99H74.2344V169.67C74.2344 170.679 74.0124 171.527 73.5684 172.213C73.1647 172.859 72.418 173.182 71.3281 173.182ZM104.326 172.334C103.035 172.334 101.904 171.89 100.936 171.002C99.9668 170.074 99.4824 168.943 99.4824 167.611V129.285C99.4824 128.276 99.6842 127.428 100.088 126.742C100.532 126.056 101.319 125.713 102.449 125.713C103.579 125.713 104.346 126.056 104.75 126.742C105.194 127.428 105.416 128.276 105.416 129.285V165.129C105.416 166.299 106.001 166.885 107.172 166.885H123.035C123.964 166.885 124.751 167.087 125.396 167.49C126.042 167.854 126.365 168.56 126.365 169.609C126.365 170.618 126.042 171.325 125.396 171.729C124.751 172.132 123.964 172.334 123.035 172.334H104.326ZM135.266 172.334C133.934 172.334 132.803 171.87 131.875 170.941C130.947 169.973 130.482 168.822 130.482 167.49V131.404C130.482 130.113 130.947 128.982 131.875 128.014C132.844 127.045 133.974 126.561 135.266 126.561H154.096C155.024 126.561 155.791 126.762 156.396 127.166C157.002 127.529 157.305 128.215 157.305 129.225C157.305 130.234 157.002 130.94 156.396 131.344C155.791 131.707 155.024 131.889 154.096 131.889H138.596C136.981 131.889 136.174 132.696 136.174 134.311V146.238H150.584C151.512 146.238 152.279 146.44 152.885 146.844C153.531 147.207 153.854 147.893 153.854 148.902C153.854 149.911 153.531 150.618 152.885 151.021C152.279 151.385 151.512 151.566 150.584 151.566H136.174V164.584C136.174 166.199 136.981 167.006 138.596 167.006H154.096C155.024 167.006 155.791 167.208 156.396 167.611C157.002 167.975 157.305 168.661 157.305 169.67C157.305 170.679 157.002 171.385 156.396 171.789C155.791 172.152 155.024 172.334 154.096 172.334H135.266ZM163.238 173.182C162.471 173.182 161.826 173 161.301 172.637C160.816 172.273 160.574 171.668 160.574 170.82C160.574 170.497 160.615 170.195 160.695 169.912C160.816 169.589 160.958 169.286 161.119 169.004L171.594 148.357L162.27 129.891C162.148 129.648 162.027 129.366 161.906 129.043C161.785 128.68 161.725 128.357 161.725 128.074C161.725 127.227 161.967 126.621 162.451 126.258C162.976 125.895 163.622 125.713 164.389 125.713C165.035 125.713 165.559 125.915 165.963 126.318C166.407 126.682 166.77 127.146 167.053 127.711L174.5 142.484L182.068 127.59C182.351 127.065 182.694 126.621 183.098 126.258C183.542 125.895 184.066 125.713 184.672 125.713C185.479 125.713 186.105 125.895 186.549 126.258C187.033 126.621 187.275 127.227 187.275 128.074C187.275 128.72 187.114 129.326 186.791 129.891L177.467 148.357L187.941 169.004C188.103 169.286 188.224 169.589 188.305 169.912C188.426 170.195 188.486 170.497 188.486 170.82C188.486 171.668 188.244 172.273 187.76 172.637C187.275 173 186.63 173.182 185.822 173.182C185.176 173.182 184.611 172.98 184.127 172.576C183.643 172.173 183.259 171.688 182.977 171.123L174.5 154.23L166.023 171.123C165.741 171.688 165.378 172.173 164.934 172.576C164.49 172.98 163.924 173.182 163.238 173.182Z" fill="black"/>
<path d="M275.77 190.5C257.77 190.5 275.77 230.088 275.77 230.088C275.77 230.088 287.404 241.84 286.219 251.667C285.035 261.493 290.626 285.167 320.126 286.167C349.626 287.167 323.719 266.167 323.719 266.167C323.719 266.167 312.566 253.167 312.566 239.914C312.566 226.662 331.72 187.156 326.679 176.667C321.638 166.178 317.719 166.167 320.126 161.303C322.533 156.44 326.679 140.167 326.679 131.667C326.679 123.167 327.872 108.248 317.719 102.667C307.565 97.0853 310.219 78.1667 300.468 68.211C290.717 58.2553 273.719 52.1784 263.672 44.9379C253.626 37.6974 253.952 30.1667 243.231 19.5962C232.511 9.02562 213.731 5.00001 213.731 5.00001C213.731 5.00001 207.719 5.16668 186.049 6.66668C164.378 8.16668 170.546 32.5256 165.382 19.5962C160.219 6.66668 140.684 12.3557 140.684 12.3557C140.684 12.3557 112.719 9.66668 107.219 12.3557C101.719 15.0446 89.7192 19.5962 84.2302 25.8023C78.7413 32.0085 78.2187 63.6667 71.6289 52.1784C65.0392 40.6902 61.0439 44.9379 61.0439 44.9379L43.9062 49.0754C43.9062 49.0754 37.8992 52.6956 31.8089 60.4533C25.7187 68.211 18.1996 85.7951 18.1996 85.7951C15.6793 88.7257 -2.78133 108.167 11.7188 123.167C-12.7813 131.667 25.8216 207.511 60.7313 198.5L65.7313 194.5L69.7313 188.5L71.2313 177.5" stroke="black" stroke-width="8"/>
</svg>
