<svg width="223" height="236" viewBox="0 0 223 236" fill="none" xmlns="http://www.w3.org/2000/svg">
<path d="M105.13 125.526L105.35 213.206C105.35 213.206 101.93 245.486 71.23 233.226C71.23 233.226 51.06 226.636 71.15 200.006C71.15 200.006 73.72 192.726 62.2 200.206C62.2 200.206 58.73 203.786 55.36 213.236C55.36 213.236 14.47 205.326 23.7 163.446L54.26 163.136C54.26 163.136 59.64 165.586 63.76 158.056C63.76 158.056 65.75 152.266 59.07 150.266C59.07 150.266 46.07 155.216 22.28 150.646C22.28 150.646 -28.27 114.206 24.45 72.3061C24.45 72.3061 33.01 80.8161 39.42 84.2661C39.42 84.2661 47.7 89.1561 57.81 75.8361C57.81 75.8361 58.33 69.7661 49.26 70.0761C49.26 70.0761 47.14 75.8661 40.73 72.6961C40.73 72.6961 27.37 64.9261 28.16 59.1461C28.16 59.1461 24.09 32.8461 54.5 30.7461L70.83 51.2261C70.83 51.2261 83.38 56.1061 79.08 41.0861C79.08 41.0861 66.53 35.3361 61.15 20.6061C61.15 20.6061 75.72 -20.1939 107.56 15.5761L107.8 109.606C107.8 109.606 89.07 101.936 78.13 109.086C78.13 109.086 73.16 112.526 78.37 116.876C78.37 116.876 111.08 111.156 105.13 125.526Z" fill="#E75225"/>
<path d="M117.31 111.266L116.93 23.5961C116.93 23.5961 120.29 -8.69387 151.01 3.51613C151.01 3.51613 171.19 10.0761 151.16 36.7361C151.16 36.7361 148.6 44.0261 160.11 36.5261C160.11 36.5261 163.58 32.9361 166.93 23.4861C166.93 23.4861 207.83 31.3261 198.68 73.2161L168.12 73.5761C168.12 73.5761 162.74 71.1361 158.63 78.6661C158.63 78.6661 156.65 84.4561 163.33 86.4461C163.33 86.4461 176.32 81.4761 200.12 85.9961C200.12 85.9961 250.74 122.346 198.09 164.346C198.09 164.346 189.51 155.856 183.1 152.416C183.1 152.416 174.81 147.536 164.73 160.876C164.73 160.876 164.22 166.946 173.29 166.616C173.29 166.616 175.4 160.826 181.82 163.976C181.82 163.976 195.19 171.726 194.42 177.506C194.42 177.506 198.54 203.796 168.13 205.946L151.77 185.496C151.77 185.496 139.21 180.636 143.54 195.646C143.54 195.646 156.11 201.376 161.51 216.096C161.51 216.096 147.01 256.916 115.11 221.216L114.7 127.186C114.7 127.186 133.44 134.816 144.37 127.646C144.37 127.646 149.33 124.196 144.11 119.856C144.09 119.866 111.39 125.646 117.31 111.266Z" fill="#E75225"/>
</svg>
