<svg width="551" height="345" viewBox="0 0 551 345" fill="none" xmlns="http://www.w3.org/2000/svg">
<path d="M272.05 161.52L272.27 249.2C272.27 249.2 268.85 281.48 238.15 269.22C238.15 269.22 217.98 262.63 238.07 236C238.07 236 240.64 228.72 229.12 236.2C229.12 236.2 225.65 239.78 222.28 249.23C222.28 249.23 181.39 241.32 190.62 199.44L221.18 199.13C221.18 199.13 226.56 201.58 230.68 194.05C230.68 194.05 232.67 188.26 225.99 186.26C225.99 186.26 212.99 191.21 189.2 186.64C189.2 186.64 138.65 150.2 191.37 108.3C191.37 108.3 199.93 116.81 206.34 120.26C206.34 120.26 214.62 125.15 224.73 111.83C224.73 111.83 225.25 105.76 216.18 106.07C216.18 106.07 214.06 111.86 207.65 108.69C207.65 108.69 194.29 100.92 195.08 95.1398C195.08 95.1398 191.01 68.8398 221.42 66.7398L237.75 87.2198C237.75 87.2198 250.3 92.0998 246 77.0798C246 77.0798 233.45 71.3298 228.07 56.5998C228.07 56.5998 242.64 15.7998 274.48 51.5698L274.72 145.6C274.72 145.6 255.99 137.93 245.05 145.08C245.05 145.08 240.08 148.52 245.29 152.87C245.29 152.87 278 147.15 272.05 161.52Z" fill="#E75225"/>
<path d="M284.23 147.26L283.85 59.5898C283.85 59.5898 287.21 27.2998 317.93 39.5098C317.93 39.5098 338.11 46.0698 318.08 72.7298C318.08 72.7298 315.52 80.0198 327.03 72.5198C327.03 72.5198 330.5 68.9298 333.85 59.4798C333.85 59.4798 374.75 67.3198 365.6 109.21L335.04 109.57C335.04 109.57 329.66 107.13 325.55 114.66C325.55 114.66 323.57 120.45 330.25 122.44C330.25 122.44 343.24 117.47 367.04 121.99C367.04 121.99 417.66 158.34 365.01 200.34C365.01 200.34 356.43 191.85 350.02 188.41C350.02 188.41 341.73 183.53 331.65 196.87C331.65 196.87 331.14 202.94 340.21 202.61C340.21 202.61 342.32 196.82 348.74 199.97C348.74 199.97 362.11 207.72 361.34 213.5C361.34 213.5 365.46 239.79 335.05 241.94L318.69 221.49C318.69 221.49 306.13 216.63 310.46 231.64C310.46 231.64 323.03 237.37 328.43 252.09C328.43 252.09 313.93 292.91 282.03 257.21L281.62 163.18C281.62 163.18 300.36 170.81 311.29 163.64C311.29 163.64 316.25 160.19 311.03 155.85C311.01 155.86 278.31 161.64 284.23 147.26Z" fill="#E75225"/>
<path d="M489.66 131.4C489.66 131.4 471 125.67 479.41 88.5601C479.41 88.5601 486.36 75.0701 487.09 63.6001C487.09 63.6001 488.19 52.4701 487.82 47.0701L487.65 43.6001C487.65 43.6001 493.21 43.8101 498.99 40.3601C498.99 40.3601 506.65 40.8301 509.2 38.7901C509.2 38.7901 515.49 33.9301 516.01 31.1001" stroke="#6589C6" stroke-width="6" stroke-miterlimit="10"/>
<path d="M495.48 31.6798C495.48 31.6798 490.43 33.3698 491.12 28.1898C491.12 28.1898 494.22 21.7398 501.33 25.0198C501.33 25.0198 504.66 25.9899 503.74 33.1699C503.74 33.1699 501.82 37.6298 500.41 38.9898L499 40.3498" stroke="#6589C6" stroke-width="6" stroke-miterlimit="10"/>
<path d="M481.85 26.0899C479.94 25.2499 479.67 27.2599 479.67 27.2599C478.94 35.9599 487.66 43.5899 487.66 43.5899H469.59C469.59 43.5899 466.2 27.0899 468.41 24.4799C468.41 24.4799 469.66 22.5799 471.87 24.0899" stroke="#6589C6" stroke-width="6" stroke-miterlimit="10"/>
<path d="M468.63 43.5801C468.63 43.5801 454.47 38.4601 452.07 37.3901L449.31 36.0801C449.31 36.0801 446.37 43.0601 447.97 47.3301C447.97 47.3301 450.11 52.5801 456.96 50.6101C456.96 50.6101 463.9 47.6301 466.04 43.5801" stroke="#6589C6" stroke-width="6" stroke-miterlimit="10"/>
<path d="M456.1 38.9801C456.1 38.9801 453.24 23.16 456.1 19.49C456.1 19.49 457.03 16.26 459.56 18.49" stroke="#6589C6" stroke-width="6" stroke-miterlimit="10"/>
<path d="M449.31 36.08C449.31 36.08 440.23 35.53 443.55 19.5C443.55 19.5 444.92 7.57999 453.27 3.25999C453.27 3.25999 481.62 1.39 511.7 7.56C511.7 7.56 527.14 11.27 535.73 38.98C535.73 38.98 545.76 79.89 547.35 92.37C547.35 92.37 545.44 126.26 540.67 138.44C540.67 138.44 536.76 158.83 526.67 160.61C526.67 160.61 485.88 161.14 478.43 159.93C478.43 159.93 472.2 158.21 465.69 161.74C465.69 161.74 448.95 169.74 425.23 165.61C425.23 165.61 400.19 161.48 393.6 148.36C393.6 148.36 385.43 137.42 387.01 118.96C387.01 118.96 389.65 102.92 400.19 93.44C400.19 93.44 415.74 81.05 434.19 82.26C434.19 82.26 462.63 78.67 477.67 98.69" stroke="#6589C6" stroke-width="6" stroke-miterlimit="10"/>
<path d="M399.38 122.99C399.38 122.99 436.03 151.53 467.08 122.99" stroke="#6589C6" stroke-width="6" stroke-miterlimit="10"/>
<path d="M509.84 151.18C509.84 151.18 524.54 154.43 526.38 140.45" stroke="#6589C6" stroke-width="6" stroke-miterlimit="10"/>
<path d="M403.6 78.8602C404.51 79.9002 406.13 79.9502 406.96 79.1802C407.63 78.5602 407.74 77.4602 407.13 76.5902L395.28 68.6002C395.2 68.5802 394.06 68.2502 393.15 68.9402C392.42 69.4802 392.15 70.4402 392.48 71.3102C396.19 73.8202 399.89 76.3402 403.6 78.8602Z" stroke="#6589C6" stroke-width="6" stroke-miterlimit="10"/>
<path d="M463.67 76.7402C462.5 77.2002 462.2 78.3602 462.83 79.1002C463.34 79.7002 464.4 79.9802 465.36 79.6902L475.08 72.6402C475.12 72.5902 475.61 71.8302 475.08 71.0502C474.66 70.4302 473.76 70.0602 472.86 70.1402C469.8 72.3302 466.74 74.5302 463.67 76.7402Z" stroke="#6589C6" stroke-width="6" stroke-miterlimit="10"/>
<path d="M415.94 72.4598C416.46 73.9098 418.1 74.4598 419.26 73.8598C420.2 73.3698 420.75 72.1798 420.46 71.0198L411.48 58.4098C411.4 58.3598 410.36 57.6398 409.16 58.1198C408.2 58.4998 407.53 59.4798 407.53 60.5498C410.33 64.5198 413.14 68.4898 415.94 72.4598Z" stroke="#6589C6" stroke-width="6" stroke-miterlimit="10"/>
<path d="M447.26 71.1502C446.02 72.1602 446.12 73.7702 447.18 74.5202C448.03 75.1202 449.44 75.1202 450.49 74.4102L459.5 61.8202C459.52 61.7402 459.82 60.5702 458.87 59.7402C458.11 59.0802 456.87 58.9002 455.8 59.3202C452.95 63.2702 450.11 67.2102 447.26 71.1502Z" stroke="#6589C6" stroke-width="6" stroke-miterlimit="10"/>
<path d="M429.47 70.77C428.72 73.45 430.64 75.84 433.05 76.02C434.99 76.17 437.11 74.89 437.91 72.86L437.62 45.34C437.56 45.19 436.73 43.13 434.38 42.71C432.5 42.38 430.45 43.23 429.31 44.85C429.36 53.49 429.42 62.13 429.47 70.77Z" fill="#6589C6" stroke="#6589C6" stroke-miterlimit="10"/>
<path d="M61.62 131.4C61.62 131.4 80.28 125.67 71.87 88.5601C71.87 88.5601 64.92 75.0701 64.19 63.6001C64.19 63.6001 63.09 52.4701 63.46 47.0701L63.63 43.6001C63.63 43.6001 58.07 43.8101 52.29 40.3601C52.29 40.3601 44.63 40.8301 42.08 38.7901C42.08 38.7901 35.79 33.9301 35.27 31.1001" stroke="#6589C6" stroke-width="6" stroke-miterlimit="10"/>
<path d="M55.79 31.6798C55.79 31.6798 60.84 33.3698 60.15 28.1898C60.15 28.1898 57.05 21.7398 49.94 25.0198C49.94 25.0198 46.61 25.9899 47.53 33.1699C47.53 33.1699 49.45 37.6298 50.86 38.9898L52.27 40.3498" stroke="#6589C6" stroke-width="6" stroke-miterlimit="10"/>
<path d="M69.42 26.0899C71.33 25.2499 71.6 27.2599 71.6 27.2599C72.33 35.9599 63.61 43.5899 63.61 43.5899H81.68C81.68 43.5899 85.07 27.0899 82.86 24.4799C82.86 24.4799 81.61 22.5799 79.4 24.0899" stroke="#6589C6" stroke-width="6" stroke-miterlimit="10"/>
<path d="M82.64 43.5801C82.64 43.5801 96.8 38.4601 99.2 37.3901L101.96 36.0801C101.96 36.0801 104.9 43.0601 103.3 47.3301C103.3 47.3301 101.16 52.5801 94.31 50.6101C94.31 50.6101 87.37 47.6301 85.23 43.5801" stroke="#6589C6" stroke-width="6" stroke-miterlimit="10"/>
<path d="M95.17 38.9801C95.17 38.9801 98.03 23.16 95.17 19.49C95.17 19.49 94.24 16.26 91.71 18.49" stroke="#6589C6" stroke-width="6" stroke-miterlimit="10"/>
<path d="M101.96 36.08C101.96 36.08 111.04 35.53 107.72 19.5C107.72 19.5 106.35 7.57999 98 3.25999C98 3.25999 69.65 1.39 39.57 7.56C39.57 7.56 24.13 11.27 15.54 38.98C15.54 38.98 5.50998 79.89 3.91998 92.37C3.91998 92.37 5.82998 126.26 10.6 138.44C10.6 138.44 14.51 158.83 24.6 160.61C24.6 160.61 65.39 161.14 72.84 159.93C72.84 159.93 79.07 158.21 85.58 161.74C85.58 161.74 102.32 169.74 126.04 165.61C126.04 165.61 151.08 161.48 157.67 148.36C157.67 148.36 165.84 137.42 164.26 118.96C164.26 118.96 161.62 102.92 151.08 93.44C151.08 93.44 135.53 81.05 117.08 82.26C117.08 82.26 88.64 78.67 73.6 98.69" stroke="#6589C6" stroke-width="6" stroke-miterlimit="10"/>
<path d="M151.9 122.99C151.9 122.99 115.25 151.53 84.2 122.99" stroke="#6589C6" stroke-width="6" stroke-miterlimit="10"/>
<path d="M41.43 151.18C41.43 151.18 26.73 154.43 24.89 140.45" stroke="#6589C6" stroke-width="6" stroke-miterlimit="10"/>
<path d="M147.68 78.8602C146.77 79.9002 145.15 79.9502 144.32 79.1802C143.65 78.5602 143.54 77.4602 144.15 76.5902L156 68.6002C156.08 68.5802 157.22 68.2502 158.13 68.9402C158.86 69.4802 159.13 70.4402 158.8 71.3102C155.09 73.8202 151.38 76.3402 147.68 78.8602Z" stroke="#6589C6" stroke-width="6" stroke-miterlimit="10"/>
<path d="M87.6 76.7402C88.77 77.2002 89.07 78.3602 88.44 79.1002C87.93 79.7002 86.87 79.9802 85.91 79.6902L76.19 72.6402C76.15 72.5902 75.66 71.8302 76.19 71.0502C76.61 70.4302 77.51 70.0602 78.41 70.1402C81.47 72.3302 84.54 74.5302 87.6 76.7402Z" stroke="#6589C6" stroke-width="6" stroke-miterlimit="10"/>
<path d="M135.34 72.4598C134.82 73.9098 133.18 74.4598 132.02 73.8598C131.08 73.3698 130.53 72.1798 130.82 71.0198L139.8 58.4098C139.88 58.3598 140.92 57.6398 142.12 58.1198C143.08 58.4998 143.75 59.4798 143.75 60.5498C140.94 64.5198 138.14 68.4898 135.34 72.4598Z" stroke="#6589C6" stroke-width="6" stroke-miterlimit="10"/>
<path d="M104.01 71.1502C105.25 72.1602 105.15 73.7702 104.09 74.5202C103.24 75.1202 101.83 75.1202 100.78 74.4102L91.77 61.8202C91.75 61.7402 91.45 60.5702 92.4 59.7402C93.16 59.0802 94.4 58.9002 95.47 59.3202C98.32 63.2702 101.17 67.2102 104.01 71.1502Z" stroke="#6589C6" stroke-width="6" stroke-miterlimit="10"/>
<path d="M121.8 70.77C122.55 73.45 120.63 75.84 118.22 76.02C116.28 76.17 114.16 74.89 113.36 72.86L113.65 45.34C113.71 45.19 114.54 43.13 116.89 42.71C118.77 42.38 120.82 43.23 121.96 44.85C121.91 53.49 121.86 62.13 121.8 70.77Z" fill="#6589C6" stroke="#6589C6" stroke-miterlimit="10"/>
<path d="M102.564 312.808C105.019 312.808 106.967 311.81 108.407 309.813C109.847 307.816 110.78 305.394 111.206 302.546H114.25C113.792 306.082 112.63 309.093 110.764 311.581C109.716 312.956 108.522 313.987 107.179 314.674C105.87 315.329 104.413 315.754 102.809 315.951C101.238 316.147 99.1759 316.246 96.6226 316.246C93.0218 316.246 90.0921 315.902 87.8334 315.214C85.6075 314.494 83.6926 313.332 82.0886 311.728C78.9461 308.586 77.3748 304.265 77.3748 298.765C77.3748 292.971 78.7824 288.667 81.5976 285.852C83.4307 284.019 85.4766 282.807 87.7352 282.218C89.9939 281.629 92.9564 281.334 96.6226 281.334C99.9942 281.334 102.728 281.58 104.823 282.071C106.95 282.529 108.685 283.528 110.027 285.066C111.14 286.343 112.008 287.881 112.63 289.682C113.252 291.482 113.612 293.266 113.71 295.034H110.911C110.78 293.561 110.42 292.055 109.831 290.516C109.274 288.945 108.391 287.603 107.179 286.49C105.968 285.344 104.43 284.772 102.564 284.772C100.796 284.772 99.3723 285.541 98.292 287.079C97.3427 288.29 96.6226 290.074 96.1316 292.431C95.7715 294.232 95.5915 296.343 95.5915 298.765C95.5915 302.595 96.0497 305.689 96.9663 308.046C98.1447 311.221 100.011 312.808 102.564 312.808ZM139.961 316.246C135.575 316.246 131.614 315.574 128.079 314.232C124.544 312.89 121.745 310.91 119.683 308.291C117.653 305.64 116.638 302.464 116.638 298.765C116.638 295.099 117.669 291.957 119.732 289.338C121.794 286.719 124.576 284.739 128.079 283.397C131.614 282.022 135.575 281.334 139.961 281.334C144.315 281.334 148.243 282.022 151.746 283.397C155.281 284.739 158.064 286.719 160.093 289.338C162.155 291.957 163.186 295.099 163.186 298.765C163.186 302.464 162.155 305.64 160.093 308.291C158.064 310.91 155.281 312.89 151.746 314.232C148.243 315.574 144.315 316.246 139.961 316.246ZM139.961 313.349C141.336 313.349 142.351 312.727 143.006 311.483C143.562 310.533 143.939 308.848 144.135 306.425C144.233 305.149 144.282 302.595 144.282 298.765C144.282 294.903 144.201 292.169 144.037 290.565C143.939 288.601 143.579 287.112 142.957 286.097C142.302 284.853 141.304 284.231 139.961 284.231C138.587 284.231 137.556 284.853 136.868 286.097C136.312 287.079 135.952 288.569 135.788 290.565C135.657 292.268 135.591 295.001 135.591 298.765C135.591 303.021 135.641 305.574 135.739 306.425C135.87 308.684 136.23 310.37 136.819 311.483C137.506 312.727 138.554 313.349 139.961 313.349ZM165.604 281.629H198.453C200.057 281.629 201.53 282.038 202.872 282.857C204.247 283.642 205.327 284.722 206.113 286.097C206.931 287.439 207.34 288.912 207.34 290.516C207.34 292.644 206.685 294.575 205.376 296.31C204.067 298.045 202.414 299.158 200.417 299.649C202.184 300.14 203.625 301.073 204.738 302.448C205.883 303.823 206.456 305.378 206.456 307.113V316H190.007V305.345C190.007 304.297 189.811 303.479 189.418 302.89C188.96 302.203 188.436 301.695 187.847 301.368C187.192 301.008 186.456 300.746 185.637 300.582C184.786 300.418 183.984 300.32 183.231 300.288L181.906 300.238V316H165.604V281.629ZM183.624 297.391C184.803 297.391 185.883 297.112 186.865 296.556C187.88 295.967 188.665 295.181 189.222 294.199C189.811 293.184 190.106 292.104 190.106 290.958C190.106 289.78 189.811 288.7 189.222 287.718C188.665 286.703 187.88 285.901 186.865 285.312C185.883 284.722 184.803 284.428 183.624 284.428H181.906V297.44L183.624 297.391ZM221.329 284.526H208.416V281.629H251.478V284.526H238.515V316H221.329V284.526ZM253.881 281.629H289.578V284.526H271.165V297.243H280.199V300.189H271.165V313.054H289.578V316H253.881V281.629ZM300.856 298.667L292.312 281.629H309.498L316.372 295.279L323.836 281.629H327.665L318.14 298.913L326.683 316H309.498L302.673 302.301L295.111 316H291.33L300.856 298.667ZM351.365 281.629H387.012V284.526H368.599V297.243H377.634V300.189H368.599V316H351.365V281.629ZM389.821 281.629H407.056V313.054H425.714V316H389.821V281.629ZM428.517 281.629H464.214V284.526H445.801V297.243H454.835V300.189H445.801V313.054H464.214V316H428.517V281.629ZM475.492 298.667L466.948 281.629H484.134L491.008 295.279L498.472 281.629H502.301L492.776 298.913L501.319 316H484.134L477.309 302.301L469.747 316H465.966L475.492 298.667Z" fill="#6589C6"/>
<path d="M141.923 326.815H149.092L156.703 344H147.423L144.845 338.304H139.444L137.234 344H135.442L141.923 326.815ZM144.157 336.807L141.923 331.823L139.984 336.807H144.157ZM158.539 328.263H152.082V326.815H173.613V328.263H167.132V344H158.539V328.263ZM174.815 326.815H183.162V334.499H188.588V326.815H196.935V344H188.588V336.144H183.162V344H174.815V326.815ZM198.311 326.815H206.928V342.527H216.257V344H198.311V326.815ZM217.659 326.815H235.507V328.263H226.301V334.622H230.818V336.095H226.301V342.527H235.507V344H217.659V326.815ZM243.196 328.263H236.739V326.815H258.27V328.263H251.789V344H243.196V328.263ZM259.472 326.815H277.32V328.263H268.114V334.622H272.631V336.095H268.114V342.527H277.32V344H259.472V326.815ZM295.437 326.815H302.606L310.217 344H300.936L298.359 338.304H292.958L290.748 344H288.956L295.437 326.815ZM297.671 336.807L295.437 331.823L293.498 336.807H297.671ZM311.187 326.815H319.804V342.527H329.133V344H311.187V326.815ZM330.535 326.815H339.152V342.527H348.481V344H330.535V326.815ZM349.883 326.815H357.886V344H349.883V326.815ZM365.181 326.815H372.35L379.961 344H370.681L368.103 338.304H362.702L360.492 344H358.7L365.181 326.815ZM367.415 336.807L365.181 331.823L363.242 336.807H367.415ZM380.931 326.815H388.149L395.317 335.407V326.815H396.79V344H391.021L382.428 332.559V344H380.931V326.815ZM410.763 342.404C411.991 342.404 412.965 341.905 413.685 340.907C414.405 339.908 414.872 338.697 415.084 337.273H416.607C416.377 339.041 415.796 340.547 414.863 341.79C414.34 342.478 413.742 342.993 413.071 343.337C412.417 343.664 411.688 343.877 410.886 343.975C410.101 344.074 409.07 344.123 407.793 344.123C405.992 344.123 404.528 343.951 403.398 343.607C402.285 343.247 401.328 342.666 400.526 341.864C398.955 340.293 398.169 338.132 398.169 335.383C398.169 332.486 398.873 330.333 400.28 328.926C401.197 328.009 402.22 327.404 403.349 327.109C404.479 326.815 405.96 326.667 407.793 326.667C409.479 326.667 410.845 326.79 411.893 327.035C412.957 327.265 413.824 327.764 414.495 328.533C415.052 329.171 415.485 329.941 415.796 330.841C416.107 331.741 416.287 332.633 416.337 333.517H414.937C414.872 332.78 414.692 332.027 414.397 331.258C414.119 330.473 413.677 329.802 413.071 329.245C412.466 328.672 411.696 328.386 410.763 328.386C409.88 328.386 409.168 328.77 408.628 329.54C408.153 330.145 407.793 331.037 407.547 332.216C407.367 333.116 407.277 334.172 407.277 335.383C407.277 337.298 407.506 338.844 407.965 340.023C408.554 341.61 409.487 342.404 410.763 342.404ZM417.805 326.815H435.653V328.263H426.447V334.622H430.964V336.095H426.447V342.527H435.653V344H417.805V326.815Z" fill="#E75225"/>
</svg>
