<svg width="551" height="272" viewBox="0 0 551 272" fill="none" xmlns="http://www.w3.org/2000/svg">
<path d="M272.05 161.52L272.27 249.2C272.27 249.2 268.85 281.48 238.15 269.22C238.15 269.22 217.98 262.63 238.07 236C238.07 236 240.64 228.72 229.12 236.2C229.12 236.2 225.65 239.78 222.28 249.23C222.28 249.23 181.39 241.32 190.62 199.44L221.18 199.13C221.18 199.13 226.56 201.58 230.68 194.05C230.68 194.05 232.67 188.26 225.99 186.26C225.99 186.26 212.99 191.21 189.2 186.64C189.2 186.64 138.65 150.2 191.37 108.3C191.37 108.3 199.93 116.81 206.34 120.26C206.34 120.26 214.62 125.15 224.73 111.83C224.73 111.83 225.25 105.76 216.18 106.07C216.18 106.07 214.06 111.86 207.65 108.69C207.65 108.69 194.29 100.92 195.08 95.1398C195.08 95.1398 191.01 68.8398 221.42 66.7398L237.75 87.2198C237.75 87.2198 250.3 92.0998 246 77.0798C246 77.0798 233.45 71.3298 228.07 56.5998C228.07 56.5998 242.64 15.7998 274.48 51.5698L274.72 145.6C274.72 145.6 255.99 137.93 245.05 145.08C245.05 145.08 240.08 148.52 245.29 152.87C245.29 152.87 278 147.15 272.05 161.52Z" fill="#E75225"/>
<path d="M284.23 147.26L283.85 59.5898C283.85 59.5898 287.21 27.2998 317.93 39.5098C317.93 39.5098 338.11 46.0698 318.08 72.7298C318.08 72.7298 315.52 80.0198 327.03 72.5198C327.03 72.5198 330.5 68.9298 333.85 59.4798C333.85 59.4798 374.75 67.3198 365.6 109.21L335.04 109.57C335.04 109.57 329.66 107.13 325.55 114.66C325.55 114.66 323.57 120.45 330.25 122.44C330.25 122.44 343.24 117.47 367.04 121.99C367.04 121.99 417.66 158.34 365.01 200.34C365.01 200.34 356.43 191.85 350.02 188.41C350.02 188.41 341.73 183.53 331.65 196.87C331.65 196.87 331.14 202.94 340.21 202.61C340.21 202.61 342.32 196.82 348.74 199.97C348.74 199.97 362.11 207.72 361.34 213.5C361.34 213.5 365.46 239.79 335.05 241.94L318.69 221.49C318.69 221.49 306.13 216.63 310.46 231.64C310.46 231.64 323.03 237.37 328.43 252.09C328.43 252.09 313.93 292.91 282.03 257.21L281.62 163.18C281.62 163.18 300.36 170.81 311.29 163.64C311.29 163.64 316.25 160.19 311.03 155.85C311.01 155.86 278.31 161.64 284.23 147.26Z" fill="#E75225"/>
<path d="M489.66 131.4C489.66 131.4 471 125.67 479.41 88.5601C479.41 88.5601 486.36 75.0701 487.09 63.6001C487.09 63.6001 488.19 52.4701 487.82 47.0701L487.65 43.6001C487.65 43.6001 493.21 43.8101 498.99 40.3601C498.99 40.3601 506.65 40.8301 509.2 38.7901C509.2 38.7901 515.49 33.9301 516.01 31.1001" stroke="#6589C6" stroke-width="6" stroke-miterlimit="10"/>
<path d="M495.48 31.6798C495.48 31.6798 490.43 33.3698 491.12 28.1898C491.12 28.1898 494.22 21.7398 501.33 25.0198C501.33 25.0198 504.66 25.9899 503.74 33.1699C503.74 33.1699 501.82 37.6298 500.41 38.9898L499 40.3498" stroke="#6589C6" stroke-width="6" stroke-miterlimit="10"/>
<path d="M481.85 26.0899C479.94 25.2499 479.67 27.2599 479.67 27.2599C478.94 35.9599 487.66 43.5899 487.66 43.5899H469.59C469.59 43.5899 466.2 27.0899 468.41 24.4799C468.41 24.4799 469.66 22.5799 471.87 24.0899" stroke="#6589C6" stroke-width="6" stroke-miterlimit="10"/>
<path d="M468.63 43.5801C468.63 43.5801 454.47 38.4601 452.07 37.3901L449.31 36.0801C449.31 36.0801 446.37 43.0601 447.97 47.3301C447.97 47.3301 450.11 52.5801 456.96 50.6101C456.96 50.6101 463.9 47.6301 466.04 43.5801" stroke="#6589C6" stroke-width="6" stroke-miterlimit="10"/>
<path d="M456.1 38.9801C456.1 38.9801 453.24 23.16 456.1 19.49C456.1 19.49 457.03 16.26 459.56 18.49" stroke="#6589C6" stroke-width="6" stroke-miterlimit="10"/>
<path d="M449.31 36.08C449.31 36.08 440.23 35.53 443.55 19.5C443.55 19.5 444.92 7.57999 453.27 3.25999C453.27 3.25999 481.62 1.39 511.7 7.56C511.7 7.56 527.14 11.27 535.73 38.98C535.73 38.98 545.76 79.89 547.35 92.37C547.35 92.37 545.44 126.26 540.67 138.44C540.67 138.44 536.76 158.83 526.67 160.61C526.67 160.61 485.88 161.14 478.43 159.93C478.43 159.93 472.2 158.21 465.69 161.74C465.69 161.74 448.95 169.74 425.23 165.61C425.23 165.61 400.19 161.48 393.6 148.36C393.6 148.36 385.43 137.42 387.01 118.96C387.01 118.96 389.65 102.92 400.19 93.44C400.19 93.44 415.74 81.05 434.19 82.26C434.19 82.26 462.63 78.67 477.67 98.69" stroke="#6589C6" stroke-width="6" stroke-miterlimit="10"/>
<path d="M399.38 122.99C399.38 122.99 436.03 151.53 467.08 122.99" stroke="#6589C6" stroke-width="6" stroke-miterlimit="10"/>
<path d="M509.84 151.18C509.84 151.18 524.54 154.43 526.38 140.45" stroke="#6589C6" stroke-width="6" stroke-miterlimit="10"/>
<path d="M403.6 78.8602C404.51 79.9002 406.13 79.9502 406.96 79.1802C407.63 78.5602 407.74 77.4602 407.13 76.5902L395.28 68.6002C395.2 68.5802 394.06 68.2502 393.15 68.9402C392.42 69.4802 392.15 70.4402 392.48 71.3102C396.19 73.8202 399.89 76.3402 403.6 78.8602Z" stroke="#6589C6" stroke-width="6" stroke-miterlimit="10"/>
<path d="M463.67 76.7402C462.5 77.2002 462.2 78.3602 462.83 79.1002C463.34 79.7002 464.4 79.9802 465.36 79.6902L475.08 72.6402C475.12 72.5902 475.61 71.8302 475.08 71.0502C474.66 70.4302 473.76 70.0602 472.86 70.1402C469.8 72.3302 466.74 74.5302 463.67 76.7402Z" stroke="#6589C6" stroke-width="6" stroke-miterlimit="10"/>
<path d="M415.94 72.4598C416.46 73.9098 418.1 74.4598 419.26 73.8598C420.2 73.3698 420.75 72.1798 420.46 71.0198L411.48 58.4098C411.4 58.3598 410.36 57.6398 409.16 58.1198C408.2 58.4998 407.53 59.4798 407.53 60.5498C410.33 64.5198 413.14 68.4898 415.94 72.4598Z" stroke="#6589C6" stroke-width="6" stroke-miterlimit="10"/>
<path d="M447.26 71.1502C446.02 72.1602 446.12 73.7702 447.18 74.5202C448.03 75.1202 449.44 75.1202 450.49 74.4102L459.5 61.8202C459.52 61.7402 459.82 60.5702 458.87 59.7402C458.11 59.0802 456.87 58.9002 455.8 59.3202C452.95 63.2702 450.11 67.2102 447.26 71.1502Z" stroke="#6589C6" stroke-width="6" stroke-miterlimit="10"/>
<path d="M429.47 70.77C428.72 73.45 430.64 75.84 433.05 76.02C434.99 76.17 437.11 74.89 437.91 72.86L437.62 45.34C437.56 45.19 436.73 43.13 434.38 42.71C432.5 42.38 430.45 43.23 429.31 44.85C429.36 53.49 429.42 62.13 429.47 70.77Z" fill="#6589C6" stroke="#6589C6" stroke-miterlimit="10"/>
<path d="M61.62 131.4C61.62 131.4 80.28 125.67 71.87 88.5601C71.87 88.5601 64.92 75.0701 64.19 63.6001C64.19 63.6001 63.09 52.4701 63.46 47.0701L63.63 43.6001C63.63 43.6001 58.07 43.8101 52.29 40.3601C52.29 40.3601 44.63 40.8301 42.08 38.7901C42.08 38.7901 35.79 33.9301 35.27 31.1001" stroke="#6589C6" stroke-width="6" stroke-miterlimit="10"/>
<path d="M55.79 31.6798C55.79 31.6798 60.84 33.3698 60.15 28.1898C60.15 28.1898 57.05 21.7398 49.94 25.0198C49.94 25.0198 46.61 25.9899 47.53 33.1699C47.53 33.1699 49.45 37.6298 50.86 38.9898L52.27 40.3498" stroke="#6589C6" stroke-width="6" stroke-miterlimit="10"/>
<path d="M69.42 26.0899C71.33 25.2499 71.6 27.2599 71.6 27.2599C72.33 35.9599 63.61 43.5899 63.61 43.5899H81.68C81.68 43.5899 85.07 27.0899 82.86 24.4799C82.86 24.4799 81.61 22.5799 79.4 24.0899" stroke="#6589C6" stroke-width="6" stroke-miterlimit="10"/>
<path d="M82.64 43.5801C82.64 43.5801 96.8 38.4601 99.2 37.3901L101.96 36.0801C101.96 36.0801 104.9 43.0601 103.3 47.3301C103.3 47.3301 101.16 52.5801 94.31 50.6101C94.31 50.6101 87.37 47.6301 85.23 43.5801" stroke="#6589C6" stroke-width="6" stroke-miterlimit="10"/>
<path d="M95.17 38.9801C95.17 38.9801 98.03 23.16 95.17 19.49C95.17 19.49 94.24 16.26 91.71 18.49" stroke="#6589C6" stroke-width="6" stroke-miterlimit="10"/>
<path d="M101.96 36.08C101.96 36.08 111.04 35.53 107.72 19.5C107.72 19.5 106.35 7.57999 98 3.25999C98 3.25999 69.65 1.39 39.57 7.56C39.57 7.56 24.13 11.27 15.54 38.98C15.54 38.98 5.50998 79.89 3.91998 92.37C3.91998 92.37 5.82998 126.26 10.6 138.44C10.6 138.44 14.51 158.83 24.6 160.61C24.6 160.61 65.39 161.14 72.84 159.93C72.84 159.93 79.07 158.21 85.58 161.74C85.58 161.74 102.32 169.74 126.04 165.61C126.04 165.61 151.08 161.48 157.67 148.36C157.67 148.36 165.84 137.42 164.26 118.96C164.26 118.96 161.62 102.92 151.08 93.44C151.08 93.44 135.53 81.05 117.08 82.26C117.08 82.26 88.64 78.67 73.6 98.69" stroke="#6589C6" stroke-width="6" stroke-miterlimit="10"/>
<path d="M151.9 122.99C151.9 122.99 115.25 151.53 84.2 122.99" stroke="#6589C6" stroke-width="6" stroke-miterlimit="10"/>
<path d="M41.43 151.18C41.43 151.18 26.73 154.43 24.89 140.45" stroke="#6589C6" stroke-width="6" stroke-miterlimit="10"/>
<path d="M147.68 78.8602C146.77 79.9002 145.15 79.9502 144.32 79.1802C143.65 78.5602 143.54 77.4602 144.15 76.5902L156 68.6002C156.08 68.5802 157.22 68.2502 158.13 68.9402C158.86 69.4802 159.13 70.4402 158.8 71.3102C155.09 73.8202 151.38 76.3402 147.68 78.8602Z" stroke="#6589C6" stroke-width="6" stroke-miterlimit="10"/>
<path d="M87.6 76.7402C88.77 77.2002 89.07 78.3602 88.44 79.1002C87.93 79.7002 86.87 79.9802 85.91 79.6902L76.19 72.6402C76.15 72.5902 75.66 71.8302 76.19 71.0502C76.61 70.4302 77.51 70.0602 78.41 70.1402C81.47 72.3302 84.54 74.5302 87.6 76.7402Z" stroke="#6589C6" stroke-width="6" stroke-miterlimit="10"/>
<path d="M135.34 72.4598C134.82 73.9098 133.18 74.4598 132.02 73.8598C131.08 73.3698 130.53 72.1798 130.82 71.0198L139.8 58.4098C139.88 58.3598 140.92 57.6398 142.12 58.1198C143.08 58.4998 143.75 59.4798 143.75 60.5498C140.94 64.5198 138.14 68.4898 135.34 72.4598Z" stroke="#6589C6" stroke-width="6" stroke-miterlimit="10"/>
<path d="M104.01 71.1502C105.25 72.1602 105.15 73.7702 104.09 74.5202C103.24 75.1202 101.83 75.1202 100.78 74.4102L91.77 61.8202C91.75 61.7402 91.45 60.5702 92.4 59.7402C93.16 59.0802 94.4 58.9002 95.47 59.3202C98.32 63.2702 101.17 67.2102 104.01 71.1502Z" stroke="#6589C6" stroke-width="6" stroke-miterlimit="10"/>
<path d="M121.8 70.77C122.55 73.45 120.63 75.84 118.22 76.02C116.28 76.17 114.16 74.89 113.36 72.86L113.65 45.34C113.71 45.19 114.54 43.13 116.89 42.71C118.77 42.38 120.82 43.23 121.96 44.85C121.91 53.49 121.86 62.13 121.8 70.77Z" fill="#6589C6" stroke="#6589C6" stroke-miterlimit="10"/>
</svg>
