<svg width="426" height="64" viewBox="0 0 426 64" fill="none" xmlns="http://www.w3.org/2000/svg">
<path d="M26.0338 31.8084C28.4889 31.8084 30.4366 30.81 31.8769 28.8132C33.3172 26.8164 34.2501 24.3941 34.6757 21.5462H37.72C37.2617 25.0815 36.0996 28.0931 34.2338 30.5809C33.1863 31.9557 31.9915 32.9868 30.6494 33.6743C29.34 34.3289 27.8833 34.7545 26.2793 34.9509C24.7081 35.1473 22.6458 35.2455 20.0926 35.2455C16.4918 35.2455 13.5621 34.9018 11.3034 34.2144C9.07748 33.4942 7.16253 32.3322 5.55855 30.7282C2.41606 27.5857 0.84481 23.2648 0.84481 17.7654C0.84481 11.9714 2.25238 7.66688 5.06753 4.85173C6.90065 3.01861 8.94654 1.80745 11.2052 1.21823C13.4639 0.629012 16.4263 0.334403 20.0926 0.334403C23.4642 0.334403 26.1975 0.57991 28.2925 1.07092C30.4202 1.5292 32.1551 2.5276 33.4972 4.06611C34.6102 5.34275 35.4777 6.88126 36.0996 8.68164C36.7216 10.482 37.0817 12.266 37.1799 14.0337H34.3811C34.2501 12.5607 33.8901 11.0549 33.3008 9.51637C32.7444 7.94512 31.8605 6.60302 30.6494 5.49005C29.4382 4.34435 27.8997 3.7715 26.0338 3.7715C24.2662 3.7715 22.8422 4.54076 21.762 6.07927C20.8127 7.29044 20.0926 9.07445 19.6016 11.4313C19.2415 13.2317 19.0614 15.3431 19.0614 17.7654C19.0614 21.5953 19.5197 24.6887 20.4363 27.0456C21.6147 30.2208 23.4806 31.8084 26.0338 31.8084ZM63.4315 35.2455C59.0451 35.2455 55.0842 34.5745 51.5489 33.2323C48.0136 31.8902 45.2148 29.9098 43.1526 27.2911C41.1231 24.6396 40.1083 21.4644 40.1083 17.7654C40.1083 14.0992 41.1394 10.9567 43.2017 8.33793C45.2639 5.71919 48.0464 3.73877 51.5489 2.39666C55.0842 1.02182 59.0451 0.334403 63.4315 0.334403C67.7851 0.334403 71.7132 1.02182 75.2158 2.39666C78.7511 3.73877 81.5335 5.71919 83.563 8.33793C85.6253 10.9567 86.6564 14.0992 86.6564 17.7654C86.6564 21.4644 85.6253 24.6396 83.563 27.2911C81.5335 29.9098 78.7511 31.8902 75.2158 33.2323C71.7132 34.5745 67.7851 35.2455 63.4315 35.2455ZM63.4315 32.3485C64.8063 32.3485 65.8211 31.7266 66.4758 30.4827C67.0322 29.5334 67.4087 27.8476 67.6051 25.4252C67.7033 24.1486 67.7524 21.5953 67.7524 17.7654C67.7524 13.9028 67.6706 11.1694 67.5069 9.56547C67.4087 7.60141 67.0486 6.112 66.4267 5.09724C65.772 3.85334 64.7736 3.23139 63.4315 3.23139C62.0566 3.23139 61.0255 3.85334 60.3381 5.09724C59.7816 6.07927 59.4215 7.56868 59.2578 9.56547C59.1269 11.2677 59.0614 14.001 59.0614 17.7654C59.0614 22.0209 59.1105 24.5741 59.2087 25.4252C59.3397 27.6839 59.6998 29.3697 60.289 30.4827C60.9764 31.7266 62.0239 32.3485 63.4315 32.3485ZM89.0739 0.629011H121.923C123.527 0.629011 125 1.03819 126.342 1.85655C127.717 2.64217 128.797 3.7224 129.583 5.09724C130.401 6.43935 130.81 7.91239 130.81 9.51637C130.81 11.6441 130.155 13.5754 128.846 15.3103C127.537 17.0453 125.884 18.1582 123.887 18.6492C125.654 19.1402 127.095 20.0732 128.208 21.448C129.353 22.8228 129.926 24.3777 129.926 26.1126V35H113.477V24.345C113.477 23.2975 113.281 22.4791 112.888 21.8899C112.43 21.2025 111.906 20.6951 111.317 20.3678C110.662 20.0077 109.926 19.7458 109.107 19.5822C108.256 19.4185 107.454 19.3203 106.701 19.2875L105.376 19.2384V35H89.0739V0.629011ZM107.094 16.3906C108.273 16.3906 109.353 16.1123 110.335 15.5558C111.35 14.9666 112.135 14.181 112.692 13.199C113.281 12.1842 113.576 11.104 113.576 9.95828C113.576 8.77985 113.281 7.69962 112.692 6.71759C112.135 5.70282 111.35 4.90083 110.335 4.31162C109.353 3.7224 108.273 3.42779 107.094 3.42779H105.376V16.4397L107.094 16.3906ZM144.799 3.52599H131.886V0.629011H174.948V3.52599H161.985V35H144.799V3.52599ZM177.351 0.629011H213.048V3.52599H194.635V16.2433H203.669V19.1893H194.635V32.0539H213.048V35H177.351V0.629011ZM224.326 17.6672L215.782 0.629011H232.968L239.842 14.2792L247.305 0.629011H251.135L241.61 17.9127L250.153 35H232.968L226.143 21.3007L218.581 35H214.8L224.326 17.6672ZM274.834 0.629011H310.482V3.52599H292.069V16.2433H301.104V19.1893H292.069V35H274.834V0.629011ZM313.291 0.629011H330.525V32.0539H349.184V35H313.291V0.629011ZM351.987 0.629011H387.684V3.52599H369.271V16.2433H378.305V19.1893H369.271V32.0539H387.684V35H351.987V0.629011ZM398.962 17.6672L390.418 0.629011H407.604L414.478 14.2792L421.942 0.629011H425.771L416.246 17.9127L424.789 35H407.604L400.779 21.3007L393.217 35H389.436L398.962 17.6672Z" fill="#6589C6"/>
<path d="M65.3933 45.8145H72.5621L80.1728 63H70.8926L68.3148 57.3042H62.9136L60.7041 63H58.9119L65.3933 45.8145ZM67.6274 55.8066L65.3933 50.8228L63.4538 55.8066H67.6274ZM82.0093 47.263H75.5525V45.8145H97.0834V47.263H90.602V63H82.0093V47.263ZM98.2851 45.8145H106.632V53.4989H112.058V45.8145H120.405V63H112.058V55.1438H106.632V63H98.2851V45.8145ZM121.781 45.8145H130.398V61.527H139.727V63H121.781V45.8145ZM141.129 45.8145H158.977V47.263H149.771V53.6216H154.288V55.0947H149.771V61.527H158.977V63H141.129V45.8145ZM166.666 47.263H160.209V45.8145H181.74V47.263H175.259V63H166.666V47.263ZM182.942 45.8145H200.79V47.263H191.584V53.6216H196.101V55.0947H191.584V61.527H200.79V63H182.942V45.8145ZM218.907 45.8145H226.076L233.687 63H224.406L221.829 57.3042H216.427L214.218 63H212.426L218.907 45.8145ZM221.141 55.8066L218.907 50.8228L216.968 55.8066H221.141ZM234.657 45.8145H243.274V61.527H252.603V63H234.657V45.8145ZM254.005 45.8145H262.622V61.527H271.951V63H254.005V45.8145ZM273.353 45.8145H281.356V63H273.353V45.8145ZM288.651 45.8145H295.82L303.431 63H294.151L291.573 57.3042H286.172L283.962 63H282.17L288.651 45.8145ZM290.885 55.8066L288.651 50.8228L286.712 55.8066H290.885ZM304.401 45.8145H311.619L318.787 54.4073V45.8145H320.26V63H314.491L305.898 51.5594V63H304.401V45.8145ZM334.233 61.4042C335.461 61.4042 336.435 60.905 337.155 59.9066C337.875 58.9082 338.342 57.697 338.554 56.2731H340.077C339.847 58.0408 339.266 59.5465 338.333 60.7904C337.81 61.4779 337.212 61.9934 336.541 62.3371C335.887 62.6645 335.158 62.8772 334.356 62.9754C333.571 63.0737 332.539 63.1228 331.263 63.1228C329.462 63.1228 327.998 62.9509 326.868 62.6072C325.755 62.2471 324.798 61.6661 323.996 60.8641C322.425 59.2928 321.639 57.1324 321.639 54.3827C321.639 51.4857 322.343 49.3334 323.75 47.9259C324.667 47.0093 325.69 46.4037 326.819 46.1091C327.948 45.8145 329.43 45.6672 331.263 45.6672C332.949 45.6672 334.315 45.79 335.363 46.0355C336.427 46.2646 337.294 46.7638 337.965 47.5331C338.522 48.1714 338.955 48.9406 339.266 49.8408C339.577 50.741 339.757 51.633 339.806 52.5168H338.407C338.342 51.7803 338.162 51.0274 337.867 50.2582C337.589 49.4726 337.147 48.8015 336.541 48.245C335.936 47.6722 335.166 47.3858 334.233 47.3858C333.35 47.3858 332.638 47.7704 332.098 48.5396C331.623 49.1452 331.263 50.0372 331.017 51.2157C330.837 52.1159 330.747 53.1715 330.747 54.3827C330.747 56.2977 330.976 57.8444 331.435 59.0228C332.024 60.6104 332.957 61.4042 334.233 61.4042ZM341.275 45.8145H359.123V47.263H349.917V53.6216H354.434V55.0947H349.917V61.527H359.123V63H341.275V45.8145Z" fill="#E75225"/>
</svg>
